<svg xmlns="http://www.w3.org/2000/svg" width="512" height="512" viewBox="0 0 512 512"><style>.a{fill:#999999;}</style><path d="M364.7 120.1H148.1c-6.6 0-12 5.4-12 12v208.9c0 6.6 5.4 12 12 12h216.6c6.6 0 12-5.4 12-12V132.1C376.7 125.5 371.3 120.1 364.7 120.1zM154.3 274.6l79.4-141.5 79.4 141.5H154.3z" class="a"/><polygon points="0 372.9 0 512 139.1 512 " fill="#666666"/><path d="M0 0v341.1L170.9 512H512V0H0zM256.8 413.6c-96.5 0-174.7-78.2-174.7-174.7C82.1 142.3 160.3 64.1 256.8 64.1c96.5 0 174.7 78.2 174.7 174.7C431.6 335.3 353.3 413.6 256.8 413.6z" class="a"/></svg>