<?xml version="1.0" encoding="utf-8"?>
<!-- Generator: Adobe Illustrator 15.0.0, SVG Export Plug-In . SVG Version: 6.00 Build 0)  -->
<!DOCTYPE svg PUBLIC "-//W3C//DTD SVG 1.1 Tiny//EN" "http://www.w3.org/Graphics/SVG/1.1/DTD/svg11-tiny.dtd">
<svg version="1.1" baseProfile="tiny" id="Layer_1" xmlns="http://www.w3.org/2000/svg" xmlns:xlink="http://www.w3.org/1999/xlink"
	 x="0px" y="0px" width="512px" height="512px" viewBox="0 0 512 512" xml:space="preserve">
<g>
	<g>
		<path fill="#999999" d="M242.154,100.833v147.331h-48.848v-47.02H0v109.713h193.306v-47.02h64.521V116.506h37.356v-15.673H242.154
			z M177.633,295.184H15.673v-78.367h161.959L177.633,295.184L177.633,295.184z"/>
	</g>
</g>
<g>
	<g>
		<path fill="#999999" d="M423.184,216.816v-53.29H512V53.812H318.694v109.714h88.815v37.616h-88.815v109.713h88.815v37.617h-88.815
			v47.02h-60.866V287.348h-15.673v123.819h76.541v47.02H512V348.473h-88.816v-37.615H512V201.143h-65.306v15.673h49.633v78.368
			h-161.96v-78.368H423.184L423.184,216.816z M334.367,147.853V69.486h161.959v78.367H334.367z M496.327,364.146v78.367h-161.96
			v-78.367H496.327z"/>
	</g>
</g>
</svg>
